<?xml version="1.0" encoding="utf-8"?>
<!-- Generator: Adobe Illustrator 23.0.0, SVG Export Plug-In . SVG Version: 6.00 Build 0)  -->
<svg version="1.1" id="Layer_1" xmlns="http://www.w3.org/2000/svg" xmlns:xlink="http://www.w3.org/1999/xlink" x="0px" y="0px"
	 viewBox="0 0 40 40" style="enable-background:new 0 0 40 40;" xml:space="preserve">
<style type="text/css">
	.st0{fill:#ED7474;}
	.st1{fill:#FFFFFF;}
</style>
<path class="st0" d="M21.77,19.04L34.87,6.9c0.57-0.53,0.63-1.45,0.13-2.05l-0.24-0.29c-0.5-0.6-1.37-0.66-1.94-0.14L19.4,16.85
	L5.99,4.42C5.42,3.9,4.55,3.96,4.05,4.56L3.81,4.85c-0.5,0.6-0.44,1.53,0.13,2.05l13.1,12.14L3.94,31.17
	c-0.57,0.53-0.63,1.45-0.13,2.05l0.24,0.29c0.5,0.6,1.37,0.66,1.94,0.14L19.4,21.23l13.41,12.43c0.57,0.53,1.44,0.46,1.94-0.14
	l0.24-0.29c0.5-0.6,0.44-1.53-0.13-2.05L21.77,19.04z"/>
<g>
	<path class="st1" d="M-5.95-11.25H-38.8c-0.65,0-1.18-0.53-1.18-1.18v-0.31c0-0.65,0.53-1.18,1.18-1.18h32.84
		c0.65,0,1.18,0.53,1.18,1.18v0.31C-4.78-11.78-5.31-11.25-5.95-11.25z"/>
	<path class="st1" d="M-5.95,13.91H-38.8c-0.65,0-1.18-0.53-1.18-1.18v-0.31c0-0.65,0.53-1.18,1.18-1.18h32.84
		c0.65,0,1.18,0.53,1.18,1.18v0.31C-4.78,13.39-5.31,13.91-5.95,13.91z"/>
	<path class="st1" d="M-30.44,0.57h-8.35c-0.65,0-1.18-0.53-1.18-1.18v-0.31c0-0.65,0.53-1.18,1.18-1.18h8.35
		c0.65,0,1.18,0.53,1.18,1.18v0.31C-29.27,0.04-29.8,0.57-30.44,0.57z"/>
	<path class="st0" d="M-20.15-2.96c-0.56-0.47-1.4-0.4-1.88,0.16l-0.35,0.41l-0.35-0.41c-0.47-0.56-1.32-0.63-1.88-0.16
		c-0.56,0.47-0.63,1.32-0.16,1.88l0.64,0.76l1.74,2.06l1.74-2.06l0.64-0.76C-19.52-1.64-19.59-2.48-20.15-2.96z"/>
	<path class="st1" d="M-5.95,0.6h-8.35c-0.65,0-1.18-0.53-1.18-1.18v-0.31c0-0.65,0.53-1.18,1.18-1.18h8.35
		c0.65,0,1.18,0.53,1.18,1.18v0.31C-4.78,0.07-5.31,0.6-5.95,0.6z"/>
</g>
</svg>
