<?xml version="1.0" encoding="utf-8"?>
<!-- Generator: Adobe Illustrator 23.0.0, SVG Export Plug-In . SVG Version: 6.00 Build 0)  -->
<svg version="1.1" id="Layer_1" xmlns="http://www.w3.org/2000/svg" xmlns:xlink="http://www.w3.org/1999/xlink" x="0px" y="0px"
	 viewBox="0 0 40 40" style="enable-background:new 0 0 40 40;" xml:space="preserve">
<style type="text/css">
	.st0{fill:#ED7474;}
	.st1{fill:#FFFFFF;}
	.st2{fill:#E9E035;}
	.st3{fill:#381E1E;}
	.st4{fill:#E9E035;stroke:#000000;stroke-width:2;stroke-miterlimit:10;}
	.st5{fill:#381E1E;stroke:#000000;stroke-width:2;stroke-linecap:round;stroke-linejoin:round;stroke-miterlimit:10;}
	.st6{fill:#6491C8;stroke:#000000;stroke-width:2;stroke-linecap:round;stroke-linejoin:round;stroke-miterlimit:10;}
	.st7{fill:#90BAE3;stroke:#000000;stroke-width:2;stroke-linecap:round;stroke-linejoin:round;stroke-miterlimit:10;}
	.st8{fill:#FFFFFF;stroke:#000000;stroke-width:2;stroke-linecap:round;stroke-linejoin:round;stroke-miterlimit:10;}
	.st9{fill:#90BAE3;}
</style>
<path class="st0" d="M-86.83-33.9l13.1-12.14c0.57-0.53,0.63-1.45,0.13-2.05l-0.24-0.29c-0.5-0.6-1.37-0.66-1.94-0.14l-13.41,12.43
	l-13.41-12.43c-0.57-0.53-1.44-0.46-1.94,0.14l-0.24,0.29c-0.5,0.6-0.44,1.53,0.13,2.05l13.1,12.14l-13.1,12.14
	c-0.57,0.53-0.63,1.45-0.13,2.05l0.24,0.29c0.5,0.6,1.37,0.66,1.94,0.14l13.41-12.43l13.41,12.43c0.57,0.53,1.44,0.46,1.94-0.14
	l0.24-0.29c0.5-0.6,0.44-1.53-0.13-2.05L-86.83-33.9z"/>
<g>
	<path class="st1" d="M-30.61-45.31h-32.84c-0.65,0-1.18-0.53-1.18-1.18v-1.41c0-0.65,0.53-1.18,1.18-1.18h32.84
		c0.65,0,1.18,0.53,1.18,1.18v1.41C-29.43-45.84-29.96-45.31-30.61-45.31z"/>
	<path class="st1" d="M-30.61-21.24h-32.84c-0.65,0-1.18-0.53-1.18-1.18v-1.37c0-0.65,0.53-1.18,1.18-1.18h32.84
		c0.65,0,1.18,0.53,1.18,1.18v1.37C-29.43-21.77-29.96-21.24-30.61-21.24z"/>
	<path class="st1" d="M-55.1-34.59h-8.35c-0.65,0-1.18-0.53-1.18-1.18v-1.11c0-0.65,0.53-1.18,1.18-1.18h8.35
		c0.65,0,1.18,0.53,1.18,1.18v1.11C-53.92-35.12-54.45-34.59-55.1-34.59z"/>
	<path class="st0" d="M-44.8-38.12c-0.56-0.47-1.4-0.4-1.88,0.16l-0.35,0.41l-0.35-0.41c-0.47-0.56-1.32-0.63-1.88-0.16
		c-0.56,0.47-0.63,1.32-0.16,1.88l0.64,0.76l1.74,2.06l1.74-2.06l0.64-0.76C-44.17-36.8-44.24-37.64-44.8-38.12z"/>
	<path class="st1" d="M-30.61-34.59h-8.35c-0.65,0-1.18-0.53-1.18-1.18v-1.11c0-0.65,0.53-1.18,1.18-1.18h8.35
		c0.65,0,1.18,0.53,1.18,1.18v1.11C-29.43-35.12-29.96-34.59-30.61-34.59z"/>
</g>
<g>
	<path class="st2" d="M80.83-36.68h25.7c1.73,0,3.13,1.4,3.13,3.13v25.7c0,1.73-1.4,3.13-3.13,3.13h-25.7
		c-1.73,0-3.13-1.4-3.13-3.13v-25.7C77.7-35.28,79.1-36.68,80.83-36.68z"/>
	<path class="st3" d="M94.13-32.41c-7.98,0-14.45,4.78-14.45,10.68c0,3.74,2.61,7.03,6.56,8.94l-1.38,5.52l6.34-4
		c0.95,0.14,1.93,0.22,2.93,0.22c7.98,0,14.45-4.78,14.45-10.68S102.11-32.41,94.13-32.41z"/>
	<path class="st2" d="M87.76-26.12h-5.27c-0.44,0-0.8,0.38-0.8,0.85c0,0.47,0.36,0.85,0.8,0.85h1.72v6.29
		c0,0.54,0.41,0.98,0.92,0.98s0.92-0.44,0.92-0.98v-6.29h1.72c0.44,0,0.8-0.38,0.8-0.85C88.56-25.74,88.2-26.12,87.76-26.12z"/>
	<path class="st2" d="M93.63-18.37L91-25.53c-0.15-0.41-0.64-0.63-1.08-0.49l-0.13,0.04c-0.03,0.01-0.05,0.03-0.07,0.04
		c-0.03,0.01-0.05,0.03-0.07,0.04c-0.07,0.04-0.13,0.08-0.18,0.13c-0.03,0.03-0.05,0.06-0.07,0.09c-0.04,0.05-0.07,0.1-0.1,0.16
		c-0.01,0.02-0.02,0.03-0.03,0.04l-2.63,7.16c-0.15,0.41,0.08,0.87,0.52,1.01l0.13,0.04c0.44,0.14,0.92-0.08,1.08-0.49l0.66-1.8
		h2.23l0.64,1.75c0.15,0.41,0.68,0.73,1.12,0.58l0.13-0.04C93.58-17.41,93.78-17.95,93.63-18.37z M89.44-20.7l0.7-1.9l0.7,1.9H89.44
		z"/>
	<path class="st2" d="M98.61-18.87h-2.88v-6.35c0-0.46-0.36-0.84-0.8-0.84s-0.8,0.38-0.8,0.84v7.21c0,0.46,0.36,0.84,0.8,0.84
		c0.02,0,0.03-0.01,0.05-0.01c0.02,0,0.03,0.01,0.05,0.01h3.58c0.44,0,0.8-0.38,0.8-0.85S99.05-18.87,98.61-18.87z"/>
	<path class="st2" d="M106.28-18.69l-2.55-3.76l2.1-2.13c0.3-0.3,0.3-0.8,0-1.1l-0.05-0.05c-0.3-0.3-0.79-0.3-1.09,0l-3.07,3.11
		v-2.54c0-0.43-0.35-0.78-0.77-0.78h-0.18c-0.42,0-0.77,0.35-0.77,0.78v7.21c0,0.43,0.35,0.78,0.77,0.78h0.18
		c0.42,0,0.77-0.35,0.77-0.78v-2.44c0.07-0.04,0.14-0.07,0.2-0.13l0.65-0.66l2.37,3.49c0.27,0.39,0.8,0.5,1.19,0.22l0.02-0.01
		C106.45-17.75,106.55-18.3,106.28-18.69z"/>
</g>
<path class="st3" d="M-6.35-62.59c-7.98,0-14.45,4.78-14.45,10.68c0,3.74,2.61,7.03,6.56,8.94l-1.38,5.52l6.34-4
	c0.95,0.14,1.93,0.22,2.93,0.22c7.98,0,14.45-4.78,14.45-10.68S1.63-62.59-6.35-62.59z"/>
<path class="st2" d="M-12.72-56.3h-5.27c-0.44,0-0.8,0.38-0.8,0.85c0,0.47,0.36,0.85,0.8,0.85h1.72v6.29c0,0.54,0.41,0.98,0.92,0.98
	c0.51,0,0.92-0.44,0.92-0.98v-6.29h1.72c0.44,0,0.8-0.38,0.8-0.85C-11.92-55.92-12.28-56.3-12.72-56.3z"/>
<path class="st2" d="M-6.85-48.55l-2.63-7.16c-0.15-0.41-0.64-0.63-1.08-0.49l-0.13,0.04c-0.03,0.01-0.05,0.03-0.07,0.04
	c-0.03,0.01-0.05,0.03-0.07,0.04c-0.07,0.04-0.13,0.08-0.18,0.13c-0.03,0.03-0.05,0.06-0.07,0.09c-0.04,0.05-0.07,0.1-0.1,0.16
	c-0.01,0.02-0.02,0.03-0.03,0.04l-2.63,7.16c-0.15,0.41,0.08,0.87,0.52,1.01l0.13,0.04c0.44,0.14,0.92-0.08,1.08-0.49l0.66-1.8h2.23
	l0.64,1.75c0.15,0.41,0.68,0.73,1.12,0.58l0.13-0.04C-6.89-47.59-6.7-48.14-6.85-48.55z M-11.03-50.89l0.7-1.9l0.7,1.9H-11.03z"/>
<path class="st2" d="M-1.87-49.05h-2.88v-6.35c0-0.46-0.36-0.84-0.8-0.84s-0.8,0.38-0.8,0.84v7.21c0,0.46,0.36,0.84,0.8,0.84
	c0.02,0,0.03-0.01,0.05-0.01c0.02,0,0.03,0.01,0.05,0.01h3.58c0.44,0,0.8-0.38,0.8-0.85S-1.43-49.05-1.87-49.05z"/>
<path class="st2" d="M5.8-48.87l-2.55-3.76l2.1-2.13c0.3-0.3,0.3-0.8,0-1.1l-0.05-0.05c-0.3-0.3-0.79-0.3-1.09,0L1.15-52.8v-2.54
	c0-0.43-0.35-0.78-0.77-0.78H0.2c-0.42,0-0.77,0.35-0.77,0.78v7.21c0,0.43,0.35,0.78,0.77,0.78h0.18c0.42,0,0.77-0.35,0.77-0.78
	v-2.44c0.07-0.04,0.14-0.07,0.2-0.13L2-51.37l2.37,3.49c0.27,0.39,0.8,0.5,1.19,0.22l0.02-0.01C5.97-47.94,6.07-48.48,5.8-48.87z"/>
<g>
	<path class="st4" d="M6.49-36.34h26.47c1.73,0,3.13,1.4,3.13,3.13v26.47c0,1.73-1.4,3.13-3.13,3.13H6.49
		c-1.73,0-3.13-1.4-3.13-3.13v-26.47C3.36-34.94,4.76-36.34,6.49-36.34z"/>
	<path class="st5" d="M20.1-31.38C12.86-31.38,7-27.05,7-21.7c0,3.4,2.37,6.38,5.95,8.11l-1.25,5.01l5.75-3.63
		c0.86,0.13,1.75,0.2,2.66,0.2c7.24,0,13.1-4.34,13.1-9.69S27.34-31.38,20.1-31.38z"/>
	<path class="st2" d="M14.8-25.21h-4.38c-0.36,0-0.66,0.32-0.66,0.71c0,0.39,0.3,0.71,0.66,0.71h1.43v5.23
		c0,0.45,0.34,0.82,0.76,0.82c0.42,0,0.76-0.37,0.76-0.82v-5.23h1.43c0.36,0,0.66-0.32,0.66-0.71
		C15.46-24.89,15.16-25.21,14.8-25.21z"/>
	<path class="st2" d="M19.68-18.76l-2.19-5.96c-0.13-0.34-0.53-0.53-0.9-0.41l-0.1,0.03c-0.02,0.01-0.04,0.02-0.06,0.03
		c-0.02,0.01-0.04,0.02-0.06,0.03c-0.06,0.03-0.11,0.06-0.15,0.11c-0.02,0.02-0.04,0.05-0.06,0.07c-0.03,0.04-0.06,0.08-0.08,0.13
		c-0.01,0.01-0.02,0.02-0.02,0.04l-2.19,5.96c-0.13,0.34,0.07,0.72,0.44,0.84l0.1,0.03c0.37,0.12,0.77-0.07,0.9-0.41l0.55-1.5h1.86
		l0.54,1.46c0.13,0.34,0.56,0.6,0.93,0.49l0.1-0.03C19.64-17.96,19.81-18.42,19.68-18.76z M16.2-20.7l0.58-1.58l0.58,1.58H16.2z"/>
	<path class="st2" d="M23.83-19.18h-2.4v-5.29c0-0.38-0.3-0.7-0.66-0.7s-0.66,0.31-0.66,0.7v6c0,0.38,0.3,0.7,0.66,0.7
		c0.01,0,0.03-0.01,0.04-0.01c0.01,0,0.03,0.01,0.04,0.01h2.98c0.37,0,0.67-0.32,0.67-0.71S24.19-19.18,23.83-19.18z"/>
	<path class="st2" d="M30.21-19.03l-2.12-3.13l1.75-1.77c0.25-0.25,0.25-0.66,0-0.92l-0.04-0.04c-0.25-0.25-0.66-0.25-0.9,0
		l-2.55,2.59v-2.11c0-0.36-0.29-0.65-0.64-0.65h-0.15c-0.35,0-0.64,0.29-0.64,0.65v6c0,0.36,0.29,0.65,0.64,0.65h0.15
		c0.35,0,0.64-0.29,0.64-0.65v-2.03c0.06-0.03,0.12-0.06,0.17-0.11l0.54-0.55l1.97,2.9c0.22,0.33,0.67,0.41,0.99,0.19l0.02-0.01
		C30.35-18.25,30.43-18.7,30.21-19.03z"/>
</g>
<g>
	<path class="st4" d="M43.94-36.34H70.4c1.73,0,3.13,1.4,3.13,3.13v26.47c0,1.73-1.4,3.13-3.13,3.13H43.94
		c-1.73,0-3.13-1.4-3.13-3.13v-26.47C40.81-34.94,42.21-36.34,43.94-36.34z"/>
	<path class="st3" d="M57.55-31.38c-7.24,0-13.1,4.34-13.1,9.69c0,3.4,2.37,6.38,5.95,8.11l-1.25,5.01l5.75-3.63
		c0.86,0.13,1.75,0.2,2.66,0.2c7.24,0,13.1-4.34,13.1-9.69S64.78-31.38,57.55-31.38z"/>
	<path class="st2" d="M52.24-25.21h-4.38c-0.36,0-0.66,0.32-0.66,0.71c0,0.39,0.3,0.71,0.66,0.71h1.43v5.23
		c0,0.45,0.34,0.82,0.76,0.82s0.76-0.37,0.76-0.82v-5.23h1.43c0.36,0,0.66-0.32,0.66-0.71C52.91-24.89,52.61-25.21,52.24-25.21z"/>
	<path class="st2" d="M57.13-18.76l-2.19-5.96c-0.13-0.34-0.53-0.53-0.9-0.41l-0.1,0.03c-0.02,0.01-0.04,0.02-0.06,0.03
		c-0.02,0.01-0.04,0.02-0.06,0.03c-0.06,0.03-0.11,0.06-0.15,0.11c-0.02,0.02-0.04,0.05-0.06,0.07c-0.03,0.04-0.06,0.08-0.08,0.13
		c-0.01,0.01-0.02,0.02-0.02,0.04l-2.19,5.96c-0.13,0.34,0.07,0.72,0.44,0.84l0.1,0.03c0.37,0.12,0.77-0.07,0.9-0.41l0.55-1.5h1.86
		l0.54,1.46c0.13,0.34,0.56,0.6,0.93,0.49l0.1-0.03C57.09-17.96,57.25-18.42,57.13-18.76z M53.65-20.7l0.58-1.58l0.58,1.58H53.65z"
		/>
	<path class="st2" d="M61.27-19.18h-2.4v-5.29c0-0.38-0.3-0.7-0.66-0.7c-0.36,0-0.66,0.31-0.66,0.7v6c0,0.38,0.3,0.7,0.66,0.7
		c0.01,0,0.03-0.01,0.04-0.01c0.01,0,0.03,0.01,0.04,0.01h2.98c0.37,0,0.67-0.32,0.67-0.71S61.64-19.18,61.27-19.18z"/>
	<path class="st2" d="M67.65-19.03l-2.12-3.13l1.75-1.77c0.25-0.25,0.25-0.66,0-0.92l-0.04-0.04c-0.25-0.25-0.66-0.25-0.9,0
		l-2.55,2.59v-2.11c0-0.36-0.29-0.65-0.64-0.65H63c-0.35,0-0.64,0.29-0.64,0.65v6c0,0.36,0.29,0.65,0.64,0.65h0.15
		c0.35,0,0.64-0.29,0.64-0.65v-2.03c0.06-0.03,0.12-0.06,0.17-0.11l0.54-0.55l1.97,2.9c0.22,0.33,0.67,0.41,0.99,0.19l0.02-0.01
		C67.79-18.25,67.88-18.7,67.65-19.03z"/>
</g>
<g>
	<path class="st6" d="M-4.67,32.32l-28.56-0.37c-0.82,0-1.48-0.85-1.48-1.9l-0.33-22.37h32.36l-0.5,22.74
		C-3.19,31.47-3.85,32.32-4.67,32.32z"/>
	<path class="st7" d="M-6.07,28.25l-30.45-0.33c-0.83,0-1.51-0.74-1.51-1.66l2.47-18.57h32.94l-1.94,18.91
		C-4.56,27.5-5.24,28.25-6.07,28.25z"/>
	<polygon points="-36.15,11.73 -3.08,12.09 -3.36,16.1 -36.52,15.75 	"/>
	<g>
		<path d="M-22.79,20.86l1.14-0.02c0.24,0,0.46,0.02,0.67,0.07c0.21,0.04,0.38,0.12,0.53,0.21c0.14,0.09,0.26,0.21,0.34,0.35
			s0.13,0.33,0.13,0.56c0,0.28-0.14,0.53-0.34,0.68c-0.18,0.14-0.51,0.25-0.75,0.34c0.21,0.03,0.37,0.07,0.48,0.14
			c0.11,0.07,0.21,0.14,0.29,0.24c0.08,0.09,0.14,0.2,0.19,0.33c0.05,0.12,0.07,0.28,0.07,0.46c0,0.3-0.23,0.53-0.33,0.69
			s-0.23,0.29-0.41,0.39c-0.17,0.1-0.36,0.16-0.57,0.2c-0.21,0.04-0.44,0.05-0.67,0.05h-1.42L-22.79,20.86z M-22.5,22.71h0.34
			c0.14,0,0.28-0.01,0.41-0.02c0.13-0.01,0.31-0.01,0.42-0.06c0.1-0.04,0.37-0.12,0.44-0.22c0.06-0.09,0.15-0.17,0.15-0.31
			c0-0.13-0.03-0.23-0.08-0.3c-0.05-0.07-0.12-0.13-0.2-0.18c-0.08-0.05-0.17-0.08-0.26-0.1c-0.09-0.01-0.18-0.02-0.27-0.02h-0.75
			L-22.5,22.71z M-22.69,24.9h0.59c0.13,0,0.26-0.01,0.4-0.03c0.13-0.02,0.25-0.06,0.34-0.11c0.1-0.04,0.18-0.11,0.24-0.2
			c0.06-0.09,0.27-0.23,0.27-0.41c0-0.19-0.03-0.34-0.1-0.43c-0.07-0.1-0.16-0.17-0.26-0.23c-0.11-0.05-0.24-0.08-0.37-0.1
			c-0.14-0.02-0.27-0.02-0.39-0.02h-0.52L-22.69,24.9z"/>
		<path d="M-17.64,20.84h0.76l1.41,4.71h-0.83l-0.25-1.16h-2.05l-0.64,1.16h-0.79L-17.64,20.84z M-17.27,21.71l-1.09,2.04h1.58
			L-17.27,21.71z"/>
		<path d="M-14.47,20.84h0.95l1.62,3.56l0.29-3.56h0.76l-0.48,4.71h-0.91l-1.48-3.65l-0.48,3.65h-0.76L-14.47,20.84z"/>
		<path d="M-9.9,20.84h0.77l-0.29,1.88l2.07-1.88h1.02l-2.42,2.19l2.1,2.51h-1.09l-1.67-2.17l-0.18,2.17h-0.77L-9.9,20.84z"/>
	</g>
</g>
<path class="st8" d="M65.75,23.88c0,0-6.75-6.48-3.86-8.32l3.97-2.13c0,0,0.8-0.36,0.56-1.85s-4.6-6.98-6.5-7.86
	c0,0-1.09-0.96-3.83,1.26c0,0-3.55,2.5-3.91,4.6c0,0-0.89,2.3-0.06,4.32c0,0,1.99,5.88,8.51,12.56c0,0,11.48,10.92,16.76,11.65
	c0,0,2.74,0.38,5.08-0.85c0,0,5.3-3.1,5.27-6.2c0,0,0.15-0.69-0.84-1.71l-6.5-4.72c0,0-1.17-0.81-2.29,0.21c0,0-1.85,3.19-2.35,3.79
	c0,0-1.68,1.85-3.37,0.72C72.4,29.35,66.38,24.57,65.75,23.88z"/>
<path class="st9" d="M16.09,23.03c0,0-6.75-6.48-3.86-8.32l3.97-2.13c0,0,0.8-0.36,0.56-1.85c-0.24-1.48-4.6-6.98-6.5-7.86
	c0,0-1.09-0.96-3.83,1.26c0,0-3.55,2.5-3.91,4.6c0,0-0.89,2.3-0.06,4.32c0,0,1.99,5.88,8.51,12.56c0,0,11.48,10.92,16.76,11.65
	c0,0,2.74,0.38,5.08-0.85c0,0,5.3-3.1,5.27-6.2c0,0,0.15-0.69-0.84-1.71l-6.5-4.72c0,0-1.17-0.81-2.29,0.21c0,0-1.85,3.19-2.35,3.79
	c0,0-1.68,1.85-3.37,0.72C22.74,28.51,16.72,23.73,16.09,23.03z"/>
<g>
	<path class="st9" d="M-49.72,2.63V0.32c0-0.93-0.75-1.68-1.68-1.68h-32.56c-0.93,0-1.68,0.75-1.68,1.68v2.09l17.25,10.61
		c0.55,0.34,1.24,0.34,1.78,0L-49.72,2.63z"/>
	<path class="st9" d="M-68.29,15.53L-85.64,4.85v18.04c0,1.07,0.87,1.93,1.93,1.93h32.05c1.07,0,1.93-0.87,1.93-1.93V5.08
		l-16.99,10.45C-67.2,15.83-67.81,15.83-68.29,15.53z"/>
</g>
</svg>
