<?xml version="1.0" encoding="utf-8"?>
<!-- Generator: Adobe Illustrator 23.0.1, SVG Export Plug-In . SVG Version: 6.00 Build 0)  -->
<svg version="1.1" id="Layer_1" xmlns="http://www.w3.org/2000/svg" xmlns:xlink="http://www.w3.org/1999/xlink" x="0px" y="0px"
	 viewBox="0 0 40 40" style="enable-background:new 0 0 40 40;" xml:space="preserve">
<style type="text/css">
	.st0{fill:#ED7474;}
	.st1{fill:#FFFFFF;}
	.st2{fill:#E9E035;}
	.st3{fill:#381E1E;}
	.st4{fill:#E9E035;stroke:#000000;stroke-width:2;stroke-miterlimit:10;}
	.st5{fill:#381E1E;stroke:#000000;stroke-width:2;stroke-linecap:round;stroke-linejoin:round;stroke-miterlimit:10;}
	.st6{fill:#6491C8;stroke:#000000;stroke-width:2;stroke-linecap:round;stroke-linejoin:round;stroke-miterlimit:10;}
	.st7{fill:#90BAE3;stroke:#000000;stroke-width:2;stroke-linecap:round;stroke-linejoin:round;stroke-miterlimit:10;}
	.st8{fill:#FFFFFF;stroke:#000000;stroke-width:2;stroke-linecap:round;stroke-linejoin:round;stroke-miterlimit:10;}
	.st9{fill:#4F4F4F;}
	.st10{fill:#90BAE3;}
</style>
<path class="st0" d="M-86.8-33.9L-73.7-46c0.6-0.5,0.6-1.5,0.1-2l-0.2-0.3c-0.5-0.6-1.4-0.7-1.9-0.1l-13.4,12.4l-13.4-12.4
	c-0.6-0.5-1.4-0.5-1.9,0.1l-0.2,0.3c-0.5,0.6-0.4,1.5,0.1,2l13.1,12.1l-13.1,12.1c-0.6,0.5-0.6,1.5-0.1,2l0.2,0.3
	c0.5,0.6,1.4,0.7,1.9,0.1l13.4-12.4l13.4,12.4c0.6,0.5,1.4,0.5,1.9-0.1l0.2-0.3c0.5-0.6,0.4-1.5-0.1-2L-86.8-33.9z"/>
<g>
	<path class="st1" d="M-30.6-45.3h-32.8c-0.6,0-1.2-0.5-1.2-1.2v-1.4c0-0.7,0.5-1.2,1.2-1.2h32.8c0.6,0,1.2,0.5,1.2,1.2v1.4
		C-29.4-45.8-30-45.3-30.6-45.3z"/>
	<path class="st1" d="M-30.6-21.2h-32.8c-0.6,0-1.2-0.5-1.2-1.2v-1.4c0-0.6,0.5-1.2,1.2-1.2h32.8c0.6,0,1.2,0.5,1.2,1.2v1.4
		C-29.4-21.8-30-21.2-30.6-21.2z"/>
	<path class="st1" d="M-55.1-34.6h-8.3c-0.7,0-1.2-0.5-1.2-1.2v-1.1c0-0.7,0.5-1.2,1.2-1.2h8.3c0.7,0,1.2,0.5,1.2,1.2v1.1
		C-53.9-35.1-54.5-34.6-55.1-34.6z"/>
	<path class="st0" d="M-44.8-38.1c-0.6-0.5-1.4-0.4-1.9,0.2l-0.3,0.4l-0.3-0.4c-0.5-0.6-1.3-0.6-1.9-0.2s-0.6,1.3-0.2,1.9l0.6,0.8
		l1.7,2.1l1.7-2.1l0.6-0.8C-44.2-36.8-44.2-37.6-44.8-38.1z"/>
	<path class="st1" d="M-30.6-34.6H-39c-0.7,0-1.2-0.5-1.2-1.2v-1.1c0-0.7,0.5-1.2,1.2-1.2h8.4c0.6,0,1.2,0.5,1.2,1.2v1.1
		C-29.4-35.1-30-34.6-30.6-34.6z"/>
</g>
<g>
	<path class="st2" d="M80.8-36.7h25.7c1.7,0,3.1,1.4,3.1,3.1v25.7c0,1.7-1.4,3.1-3.1,3.1H80.8c-1.7,0-3.1-1.4-3.1-3.1v-25.7
		C77.7-35.3,79.1-36.7,80.8-36.7z"/>
	<path class="st3" d="M94.1-32.4c-8,0-14.4,4.8-14.4,10.7c0,3.7,2.6,7,6.6,8.9l-1.4,5.5l6.3-4c0.9,0.1,1.9,0.2,2.9,0.2
		c8,0,14.4-4.8,14.4-10.7S102.1-32.4,94.1-32.4z"/>
	<path class="st2" d="M87.8-26.1h-5.3c-0.4,0-0.8,0.4-0.8,0.9c0,0.5,0.4,0.9,0.8,0.9h1.7v6.3c0,0.5,0.4,1,0.9,1s0.9-0.4,0.9-1v-6.3
		h1.7c0.4,0,0.8-0.4,0.8-0.9C88.6-25.7,88.2-26.1,87.8-26.1z"/>
	<path class="st2" d="M93.6-18.4L91-25.5c-0.2-0.4-0.6-0.6-1.1-0.5l-0.1,0c0,0-0.1,0-0.1,0c0,0-0.1,0-0.1,0c-0.1,0-0.1,0.1-0.2,0.1
		c0,0-0.1,0.1-0.1,0.1c0,0-0.1,0.1-0.1,0.2c0,0,0,0,0,0l-2.6,7.2c-0.2,0.4,0.1,0.9,0.5,1l0.1,0c0.4,0.1,0.9-0.1,1.1-0.5l0.7-1.8h2.2
		l0.6,1.8c0.2,0.4,0.7,0.7,1.1,0.6l0.1,0C93.6-17.4,93.8-18,93.6-18.4z M89.4-20.7l0.7-1.9l0.7,1.9H89.4z"/>
	<path class="st2" d="M98.6-18.9h-2.9v-6.4c0-0.5-0.4-0.8-0.8-0.8s-0.8,0.4-0.8,0.8v7.2c0,0.5,0.4,0.8,0.8,0.8c0,0,0,0,0.1,0
		c0,0,0,0,0.1,0h3.6c0.4,0,0.8-0.4,0.8-0.9S99.1-18.9,98.6-18.9z"/>
	<path class="st2" d="M106.3-18.7l-2.6-3.8l2.1-2.1c0.3-0.3,0.3-0.8,0-1.1l-0.1,0c-0.3-0.3-0.8-0.3-1.1,0l-3.1,3.1v-2.5
		c0-0.4-0.3-0.8-0.8-0.8h-0.2c-0.4,0-0.8,0.4-0.8,0.8v7.2c0,0.4,0.3,0.8,0.8,0.8h0.2c0.4,0,0.8-0.4,0.8-0.8v-2.4
		c0.1,0,0.1-0.1,0.2-0.1l0.7-0.7l2.4,3.5c0.3,0.4,0.8,0.5,1.2,0.2l0,0C106.4-17.8,106.6-18.3,106.3-18.7z"/>
</g>
<path class="st3" d="M-6.3-62.6c-8,0-14.4,4.8-14.4,10.7c0,3.7,2.6,7,6.6,8.9l-1.4,5.5l6.3-4c0.9,0.1,1.9,0.2,2.9,0.2
	c8,0,14.4-4.8,14.4-10.7S1.6-62.6-6.3-62.6z"/>
<path class="st2" d="M-12.7-56.3H-18c-0.4,0-0.8,0.4-0.8,0.8c0,0.5,0.4,0.8,0.8,0.8h1.7v6.3c0,0.5,0.4,1,0.9,1s0.9-0.4,0.9-1v-6.3
	h1.7c0.4,0,0.8-0.4,0.8-0.8C-11.9-55.9-12.3-56.3-12.7-56.3z"/>
<path class="st2" d="M-6.8-48.5l-2.6-7.2c-0.1-0.4-0.6-0.6-1.1-0.5l-0.1,0c0,0-0.1,0-0.1,0c0,0-0.1,0-0.1,0c-0.1,0-0.1,0.1-0.2,0.1
	c0,0-0.1,0.1-0.1,0.1c0,0-0.1,0.1-0.1,0.2c0,0,0,0,0,0l-2.6,7.2c-0.1,0.4,0.1,0.9,0.5,1l0.1,0c0.4,0.1,0.9-0.1,1.1-0.5l0.7-1.8h2.2
	l0.6,1.8c0.1,0.4,0.7,0.7,1.1,0.6l0.1,0C-6.9-47.6-6.7-48.1-6.8-48.5z M-11-50.9l0.7-1.9l0.7,1.9H-11z"/>
<path class="st2" d="M-1.9-49h-2.9v-6.3c0-0.5-0.4-0.8-0.8-0.8s-0.8,0.4-0.8,0.8v7.2c0,0.5,0.4,0.8,0.8,0.8c0,0,0,0,0.1,0s0,0,0.1,0
	h3.6c0.4,0,0.8-0.4,0.8-0.8S-1.4-49-1.9-49z"/>
<path class="st2" d="M5.8-48.9l-2.5-3.8l2.1-2.1c0.3-0.3,0.3-0.8,0-1.1l-0.1,0c-0.3-0.3-0.8-0.3-1.1,0l-3.1,3.1v-2.5
	c0-0.4-0.4-0.8-0.8-0.8H0.2c-0.4,0-0.8,0.3-0.8,0.8v7.2c0,0.4,0.3,0.8,0.8,0.8h0.2c0.4,0,0.8-0.3,0.8-0.8v-2.4
	c0.1,0,0.1-0.1,0.2-0.1L2-51.4l2.4,3.5c0.3,0.4,0.8,0.5,1.2,0.2l0,0C6-47.9,6.1-48.5,5.8-48.9z"/>
<g>
	<path class="st4" d="M6.5-36.3H33c1.7,0,3.1,1.4,3.1,3.1v26.5c0,1.7-1.4,3.1-3.1,3.1H6.5C4.8-3.6,3.4-5,3.4-6.7v-26.5
		C3.4-34.9,4.8-36.3,6.5-36.3z"/>
	<path class="st5" d="M20.1-31.4C12.9-31.4,7-27,7-21.7c0,3.4,2.4,6.4,5.9,8.1l-1.3,5l5.8-3.6c0.9,0.1,1.8,0.2,2.7,0.2
		c7.2,0,13.1-4.3,13.1-9.7S27.3-31.4,20.1-31.4z"/>
	<path class="st2" d="M14.8-25.2h-4.4c-0.4,0-0.7,0.3-0.7,0.7s0.3,0.7,0.7,0.7h1.4v5.2c0,0.5,0.3,0.8,0.8,0.8s0.8-0.4,0.8-0.8v-5.2
		h1.4c0.4,0,0.7-0.3,0.7-0.7C15.5-24.9,15.2-25.2,14.8-25.2z"/>
	<path class="st2" d="M19.7-18.8l-2.2-6c-0.1-0.3-0.5-0.5-0.9-0.4l-0.1,0c0,0,0,0-0.1,0c0,0,0,0-0.1,0c-0.1,0-0.1,0.1-0.1,0.1
		c0,0,0,0-0.1,0.1c0,0-0.1,0.1-0.1,0.1c0,0,0,0,0,0l-2.2,6c-0.1,0.3,0.1,0.7,0.4,0.8l0.1,0c0.4,0.1,0.8-0.1,0.9-0.4l0.6-1.5h1.9
		l0.5,1.5c0.1,0.3,0.6,0.6,0.9,0.5l0.1,0C19.6-18,19.8-18.4,19.7-18.8z M16.2-20.7l0.6-1.6l0.6,1.6H16.2z"/>
	<path class="st2" d="M23.8-19.2h-2.4v-5.3c0-0.4-0.3-0.7-0.7-0.7s-0.7,0.3-0.7,0.7v6c0,0.4,0.3,0.7,0.7,0.7c0,0,0,0,0,0s0,0,0,0h3
		c0.4,0,0.7-0.3,0.7-0.7S24.2-19.2,23.8-19.2z"/>
	<path class="st2" d="M30.2-19l-2.1-3.1l1.8-1.8c0.3-0.3,0.3-0.7,0-0.9l0,0c-0.3-0.3-0.7-0.3-0.9,0l-2.5,2.6v-2.1
		c0-0.4-0.3-0.6-0.6-0.6h-0.1c-0.4,0-0.6,0.3-0.6,0.6v6c0,0.4,0.3,0.6,0.6,0.6h0.1c0.4,0,0.6-0.3,0.6-0.6v-2c0.1,0,0.1-0.1,0.2-0.1
		l0.5-0.5l2,2.9c0.2,0.3,0.7,0.4,1,0.2l0,0C30.4-18.3,30.4-18.7,30.2-19z"/>
</g>
<g>
	<path class="st4" d="M43.9-36.3h26.5c1.7,0,3.1,1.4,3.1,3.1v26.5c0,1.7-1.4,3.1-3.1,3.1H43.9c-1.7,0-3.1-1.4-3.1-3.1v-26.5
		C40.8-34.9,42.2-36.3,43.9-36.3z"/>
	<path class="st3" d="M57.5-31.4c-7.2,0-13.1,4.3-13.1,9.7c0,3.4,2.4,6.4,6,8.1l-1.3,5l5.8-3.6c0.9,0.1,1.8,0.2,2.7,0.2
		c7.2,0,13.1-4.3,13.1-9.7S64.8-31.4,57.5-31.4z"/>
	<path class="st2" d="M52.2-25.2h-4.4c-0.4,0-0.7,0.3-0.7,0.7s0.3,0.7,0.7,0.7h1.4v5.2c0,0.5,0.3,0.8,0.8,0.8s0.8-0.4,0.8-0.8v-5.2
		h1.4c0.4,0,0.7-0.3,0.7-0.7C52.9-24.9,52.6-25.2,52.2-25.2z"/>
	<path class="st2" d="M57.1-18.8l-2.2-6c-0.1-0.3-0.5-0.5-0.9-0.4l-0.1,0c0,0,0,0-0.1,0s0,0-0.1,0c-0.1,0-0.1,0.1-0.2,0.1
		c0,0,0,0-0.1,0.1c0,0-0.1,0.1-0.1,0.1c0,0,0,0,0,0l-2.2,6c-0.1,0.3,0.1,0.7,0.4,0.8l0.1,0c0.4,0.1,0.8-0.1,0.9-0.4l0.5-1.5h1.9
		l0.5,1.5c0.1,0.3,0.6,0.6,0.9,0.5l0.1,0C57.1-18,57.3-18.4,57.1-18.8z M53.7-20.7l0.6-1.6l0.6,1.6H53.7z"/>
	<path class="st2" d="M61.3-19.2h-2.4v-5.3c0-0.4-0.3-0.7-0.7-0.7s-0.7,0.3-0.7,0.7v6c0,0.4,0.3,0.7,0.7,0.7c0,0,0,0,0,0
		c0,0,0,0,0,0h3c0.4,0,0.7-0.3,0.7-0.7S61.6-19.2,61.3-19.2z"/>
	<path class="st2" d="M67.7-19l-2.1-3.1l1.8-1.8c0.3-0.3,0.3-0.7,0-0.9l0,0c-0.3-0.3-0.7-0.3-0.9,0l-2.5,2.6v-2.1
		c0-0.4-0.3-0.6-0.6-0.6H63c-0.3,0-0.6,0.3-0.6,0.6v6c0,0.4,0.3,0.6,0.6,0.6h0.2c0.3,0,0.6-0.3,0.6-0.6v-2c0.1,0,0.1-0.1,0.2-0.1
		l0.5-0.5l2,2.9c0.2,0.3,0.7,0.4,1,0.2l0,0C67.8-18.3,67.9-18.7,67.7-19z"/>
</g>
<g>
	<path class="st6" d="M-4.7,32.3l-28.6-0.4c-0.8,0-1.5-0.9-1.5-1.9L-35,7.7h32.4l-0.5,22.7C-3.2,31.5-3.8,32.3-4.7,32.3z"/>
	<path class="st7" d="M-6.1,28.3l-30.5-0.3c-0.8,0-1.5-0.7-1.5-1.7l2.5-18.6h32.9l-1.9,18.9C-4.6,27.5-5.2,28.3-6.1,28.3z"/>
	<polygon points="-36.2,11.7 -3.1,12.1 -3.4,16.1 -36.5,15.8 	"/>
	<g>
		<path d="M-22.8,20.9l1.1,0c0.2,0,0.5,0,0.7,0.1c0.2,0,0.4,0.1,0.5,0.2c0.1,0.1,0.3,0.2,0.3,0.4S-20,21.8-20,22
			c0,0.3-0.1,0.5-0.3,0.7c-0.2,0.1-0.5,0.3-0.8,0.3c0.2,0,0.4,0.1,0.5,0.1c0.1,0.1,0.2,0.1,0.3,0.2c0.1,0.1,0.1,0.2,0.2,0.3
			c0,0.1,0.1,0.3,0.1,0.5c0,0.3-0.2,0.5-0.3,0.7s-0.2,0.3-0.4,0.4c-0.2,0.1-0.4,0.2-0.6,0.2s-0.4,0-0.7,0h-1.4L-22.8,20.9z
			 M-22.5,22.7h0.3c0.1,0,0.3,0,0.4,0s0.3,0,0.4-0.1c0.1,0,0.4-0.1,0.4-0.2c0.1-0.1,0.1-0.2,0.1-0.3c0-0.1,0-0.2-0.1-0.3
			s-0.1-0.1-0.2-0.2c-0.1,0-0.2-0.1-0.3-0.1c-0.1,0-0.2,0-0.3,0h-0.8L-22.5,22.7z M-22.7,24.9h0.6c0.1,0,0.3,0,0.4,0
			c0.1,0,0.3-0.1,0.3-0.1c0.1,0,0.2-0.1,0.2-0.2s0.3-0.2,0.3-0.4c0-0.2,0-0.3-0.1-0.4c-0.1-0.1-0.2-0.2-0.3-0.2
			c-0.1,0-0.2-0.1-0.4-0.1c-0.1,0-0.3,0-0.4,0h-0.5L-22.7,24.9z"/>
		<path d="M-17.6,20.8h0.8l1.4,4.7h-0.8l-0.3-1.2h-2l-0.6,1.2H-20L-17.6,20.8z M-17.3,21.7l-1.1,2h1.6L-17.3,21.7z"/>
		<path d="M-14.5,20.8h0.9l1.6,3.6l0.3-3.6h0.8l-0.5,4.7h-0.9l-1.5-3.6l-0.5,3.6H-15L-14.5,20.8z"/>
		<path d="M-9.9,20.8h0.8l-0.3,1.9l2.1-1.9h1L-8.8,23l2.1,2.5h-1.1l-1.7-2.2l-0.2,2.2h-0.8L-9.9,20.8z"/>
	</g>
</g>
<path class="st8" d="M65.8,23.9c0,0-6.8-6.5-3.9-8.3l4-2.1c0,0,0.8-0.4,0.6-1.9s-4.6-7-6.5-7.9c0,0-1.1-1-3.8,1.3
	c0,0-3.5,2.5-3.9,4.6c0,0-0.9,2.3-0.1,4.3c0,0,2,5.9,8.5,12.6c0,0,11.5,10.9,16.8,11.7c0,0,2.7,0.4,5.1-0.8c0,0,5.3-3.1,5.3-6.2
	c0,0,0.2-0.7-0.8-1.7l-6.5-4.7c0,0-1.2-0.8-2.3,0.2c0,0-1.8,3.2-2.3,3.8c0,0-1.7,1.9-3.4,0.7C72.4,29.4,66.4,24.6,65.8,23.9z"/>
<path class="st9" d="M16.1,23c0,0-6.8-6.5-3.9-8.3l4-2.1c0,0,0.8-0.4,0.6-1.9c-0.2-1.5-4.6-7-6.5-7.9c0,0-1.1-1-3.8,1.3
	c0,0-3.5,2.5-3.9,4.6c0,0-0.9,2.3-0.1,4.3c0,0,2,5.9,8.5,12.6c0,0,11.5,10.9,16.8,11.7c0,0,2.7,0.4,5.1-0.8c0,0,5.3-3.1,5.3-6.2
	c0,0,0.2-0.7-0.8-1.7l-6.5-4.7c0,0-1.2-0.8-2.3,0.2c0,0-1.9,3.2-2.4,3.8c0,0-1.7,1.9-3.4,0.7C22.7,28.5,16.7,23.7,16.1,23z"/>
<g>
	<path class="st10" d="M-49.7,2.6V0.3c0-0.9-0.8-1.7-1.7-1.7H-84c-0.9,0-1.7,0.8-1.7,1.7v2.1L-68.4,13c0.6,0.3,1.2,0.3,1.8,0
		L-49.7,2.6z"/>
	<path class="st10" d="M-68.3,15.5L-85.6,4.8v18c0,1.1,0.9,1.9,1.9,1.9h32c1.1,0,1.9-0.9,1.9-1.9V5.1l-17,10.4
		C-67.2,15.8-67.8,15.8-68.3,15.5z"/>
</g>
</svg>
